<svg id="svg" version="1.1" xmlns="http://www.w3.org/2000/svg" xmlns:xlink="http://www.w3.org/1999/xlink" width="400" height="400.1410437235543" viewBox="0, 0, 400,400.1410437235543"><g id="svgg"><path id="path0" d="M208.734 32.375 C 208.978 36.365,209.130 37.311,210.912 45.917 C 213.039 56.194,211.189 63.165,199.645 88.380 C 196.038 96.258,196.000 96.833,198.617 103.833 C 202.875 115.219,203.238 120.525,200.170 126.548 C 198.957 128.931,198.752 129.764,199.221 130.405 C 199.508 130.798,199.864 129.998,200.811 126.833 C 202.386 121.569,203.890 117.835,204.279 118.223 C 204.310 118.254,204.147 119.277,203.918 120.495 C 203.444 123.008,203.405 123.559,203.708 123.460 C 204.016 123.360,204.441 122.385,204.671 121.250 C 206.613 111.674,212.209 89.210,212.986 87.877 C 213.475 87.036,212.942 92.289,212.143 96.167 C 211.480 99.388,210.976 101.368,208.826 109.199 C 205.858 120.004,204.791 124.638,205.756 122.525 C 207.451 118.811,210.202 108.829,211.919 100.167 C 212.348 98.002,214.389 88.357,214.600 87.500 C 214.701 87.091,214.705 87.090,214.840 87.442 C 215.838 90.049,215.547 119.396,214.400 131.917 C 213.944 136.881,214.452 138.509,216.918 139.991 L 217.873 140.565 218.779 140.091 C 220.489 139.195,223.459 135.691,224.117 133.795 C 224.757 131.946,224.751 131.502,223.686 102.083 C 222.593 71.926,222.590 71.833,222.815 71.833 C 223.359 71.833,223.751 75.832,223.999 83.917 C 224.095 87.033,224.246 91.121,224.336 93.000 C 224.426 94.879,224.686 100.917,224.915 106.417 C 225.404 118.144,226.013 130.723,226.097 130.814 C 226.667 131.434,233.794 123.013,237.399 117.460 C 238.617 115.584,239.123 114.531,240.300 111.417 C 240.855 109.950,241.845 107.475,242.500 105.917 C 246.944 95.348,247.027 93.649,243.672 81.833 C 242.774 78.671,241.725 74.966,241.340 73.599 C 237.541 60.122,235.155 56.328,221.778 42.500 C 212.241 32.642,209.913 30.500,208.735 30.500 C 208.671 30.500,208.671 31.344,208.734 32.375 M194.651 41.854 C 192.288 43.809,185.792 50.504,182.583 54.293 C 181.942 55.050,181.391 55.588,181.358 55.490 C 181.246 55.155,182.409 53.528,184.750 50.742 C 187.482 47.490,188.647 46.027,189.056 45.335 L 189.351 44.835 188.936 44.993 C 187.289 45.619,186.183 46.386,179.896 51.264 C 163.619 63.893,158.158 71.214,152.868 87.500 C 152.406 88.921,150.976 93.271,149.690 97.167 C 146.397 107.140,145.318 111.076,145.346 113.020 C 145.362 114.068,145.083 114.860,150.253 99.083 C 158.632 73.516,159.142 72.521,169.077 62.377 C 174.177 57.170,177.054 54.665,177.465 55.076 C 177.626 55.237,176.891 56.610,173.484 62.518 C 165.128 77.008,163.475 82.206,158.431 109.862 C 157.651 114.140,156.705 119.053,156.329 120.779 C 154.750 128.028,154.629 128.771,154.713 130.750 C 154.836 133.631,155.732 135.872,157.270 137.140 C 158.427 138.094,158.455 138.064,158.578 135.689 C 158.747 132.436,159.381 129.326,159.791 129.736 C 159.858 129.802,159.920 131.782,159.931 134.136 C 159.956 139.893,160.358 141.969,161.923 144.416 C 162.766 145.733,165.273 147.783,165.618 147.437 C 165.675 147.380,165.623 143.565,165.502 138.959 C 165.102 123.736,165.908 117.694,169.999 105.250 C 171.775 99.846,172.090 98.622,173.060 93.331 C 174.335 86.381,175.679 81.306,175.801 82.980 C 175.879 84.045,175.304 88.299,173.985 96.417 C 171.954 108.913,171.429 113.372,172.046 112.863 C 173.051 112.034,176.042 106.937,182.088 95.750 C 183.623 92.908,185.396 89.684,186.027 88.586 C 187.611 85.829,187.817 84.924,187.830 80.667 C 187.853 72.926,189.236 65.522,192.829 53.917 C 195.193 46.279,196.167 42.506,196.167 40.983 C 196.167 40.679,195.856 40.857,194.651 41.854 M250.515 65.306 C 250.415 65.492,250.221 66.180,250.083 66.833 C 249.802 68.171,249.688 68.428,248.890 69.528 C 248.138 70.563,246.922 73.168,246.596 74.441 C 246.125 76.279,246.326 76.285,247.105 74.455 C 247.948 72.474,249.354 70.570,249.222 71.589 C 248.984 73.431,247.845 85.067,247.898 85.120 C 248.250 85.473,249.010 83.489,249.848 80.028 C 250.210 78.531,250.662 77.002,250.852 76.630 L 251.197 75.954 251.516 76.436 C 252.392 77.754,254.128 82.900,257.977 95.583 C 261.466 107.080,263.123 111.777,263.753 111.954 C 263.846 111.981,264.371 110.933,264.920 109.626 L 265.917 107.250 265.897 105.333 C 265.840 99.820,261.186 86.397,254.180 71.537 C 251.814 66.519,250.794 64.784,250.515 65.306 M251.106 81.192 C 250.658 82.583,250.631 83.137,250.906 85.328 C 252.525 98.229,247.270 117.218,236.891 135.972 C 231.454 145.794,215.372 171.500,214.664 171.500 C 214.143 171.500,213.004 170.084,212.415 168.703 C 212.073 167.904,210.349 164.063,208.582 160.167 C 196.988 134.595,192.569 117.041,192.176 95.000 C 192.068 88.933,192.008 87.786,191.757 87.003 L 191.464 86.089 191.077 86.574 C 190.039 87.876,188.308 94.305,186.856 102.250 C 185.463 109.873,185.011 114.654,184.722 124.828 L 184.611 128.739 184.326 127.898 C 182.568 122.726,184.240 104.987,187.615 93.013 C 188.455 90.031,188.739 87.460,188.342 86.431 C 188.089 85.777,188.032 85.870,186.909 88.750 C 185.900 91.337,183.725 95.738,175.269 112.300 C 166.059 130.339,165.825 131.284,167.255 144.667 C 168.385 155.243,171.772 179.914,173.501 190.167 C 173.679 191.221,173.940 193.128,174.080 194.404 C 174.432 197.596,174.919 199.333,175.462 199.333 C 176.198 199.333,173.927 182.353,169.020 151.167 C 167.735 143.001,167.749 143.144,167.756 138.333 C 167.767 130.228,168.791 126.740,174.524 115.289 C 175.727 112.884,177.271 109.567,177.954 107.917 C 179.803 103.451,182.209 99.796,182.468 101.059 C 182.578 101.590,181.946 105.640,180.919 111.000 C 178.997 121.032,178.774 122.869,178.771 128.750 C 178.768 134.384,178.804 134.681,181.599 152.500 C 184.499 170.985,186.051 179.444,186.959 181.721 C 187.272 182.508,187.630 182.471,189.000 181.512 L 189.917 180.870 189.887 179.392 C 189.835 176.785,189.285 174.140,187.094 165.948 C 185.238 159.011,184.167 154.105,184.167 152.542 C 184.167 152.124,184.900 152.889,185.830 154.278 C 187.268 156.426,190.791 163.817,194.158 171.750 C 196.072 176.258,196.367 176.750,197.508 177.336 C 200.377 178.808,200.378 177.662,197.510 169.056 C 189.696 145.600,186.641 131.064,188.563 126.492 L 188.801 125.927 188.968 126.588 C 189.209 127.536,189.277 128.134,189.835 134.167 C 190.994 146.703,197.867 170.946,201.756 176.214 C 203.527 178.613,202.799 174.875,200.023 167.318 C 196.897 158.807,195.566 154.526,195.696 153.393 C 195.823 152.274,197.858 157.609,202.437 171.070 C 204.291 176.520,205.035 177.293,210.667 179.624 C 213.168 180.659,213.020 180.666,213.929 179.484 C 214.983 178.114,217.337 174.333,220.455 169.000 C 221.875 166.571,224.406 162.333,226.079 159.583 C 236.625 142.249,240.891 133.986,244.683 123.541 C 246.847 117.581,248.578 113.135,249.404 111.417 L 250.125 109.917 250.329 110.417 C 251.745 113.879,248.435 130.408,244.206 141.000 C 240.395 150.543,229.706 170.782,222.230 182.611 C 220.320 185.632,218.984 188.707,219.401 189.123 C 219.662 189.384,221.750 187.617,224.667 184.663 C 228.847 180.431,228.312 180.659,233.024 181.105 C 234.066 181.203,234.145 181.186,234.370 180.813 C 234.502 180.595,235.120 179.517,235.744 178.418 C 238.163 174.155,242.068 168.103,242.846 167.411 L 243.214 167.083 243.123 168.750 C 242.998 171.026,242.499 172.909,241.135 176.250 C 237.614 184.873,237.559 185.243,239.350 188.423 C 241.109 191.548,241.383 193.296,240.934 198.558 C 240.655 201.841,240.593 203.833,240.772 203.833 C 241.248 203.833,243.391 202.154,246.864 199.059 C 250.446 195.867,252.245 194.782,251.409 196.317 C 250.831 197.381,249.448 198.696,247.081 200.437 C 246.099 201.159,244.761 202.144,244.107 202.625 C 240.207 205.494,239.310 207.375,238.242 214.924 C 237.772 218.243,237.757 229.479,238.221 229.944 C 238.247 229.969,238.751 230.113,239.342 230.263 C 240.893 230.657,241.508 231.382,242.405 233.879 L 242.870 235.175 241.633 236.469 C 240.666 237.482,240.346 237.944,240.165 238.590 C 239.815 239.841,238.063 241.560,234.848 243.805 C 233.347 244.854,233.448 245.006,233.928 242.416 C 234.452 239.590,234.492 239.777,233.458 240.178 C 229.456 241.732,225.296 245.193,223.834 248.186 C 222.246 251.434,221.315 252.055,217.621 252.329 C 214.876 252.532,213.896 253.068,213.424 254.625 C 213.258 255.175,213.686 255.124,216.678 254.238 C 219.464 253.413,220.263 253.363,221.818 253.911 C 222.769 254.247,224.907 254.481,228.381 254.630 L 231.179 254.750 231.820 256.197 L 232.460 257.644 231.355 257.757 C 227.848 258.112,226.076 258.831,221.083 261.923 C 216.428 264.805,215.230 264.815,211.750 262.000 C 209.857 260.469,208.414 259.760,207.179 259.754 L 206.274 259.750 205.955 260.750 C 205.456 262.317,205.164 273.148,205.613 273.463 C 205.780 273.580,206.292 273.918,206.750 274.213 L 207.583 274.750 207.632 276.052 C 207.674 277.163,207.619 277.485,207.257 278.250 C 206.413 280.034,206.692 281.133,208.124 281.666 C 209.200 282.066,211.167 283.166,211.167 283.367 C 211.167 283.727,209.789 284.944,208.435 285.780 C 205.419 287.642,205.272 288.087,206.939 290.320 L 207.571 291.167 208.584 291.167 C 210.811 291.167,212.148 290.549,215.547 287.951 C 216.667 287.095,218.521 285.728,219.667 284.914 C 229.192 278.148,232.993 274.214,235.046 269.000 C 235.640 267.490,244.428 238.366,244.752 236.833 C 245.028 235.527,245.100 233.558,244.903 232.733 C 244.787 232.245,244.434 231.497,243.194 229.100 L 242.513 227.784 242.875 227.267 C 243.075 226.983,243.954 226.000,244.828 225.083 C 247.346 222.444,248.003 221.165,248.317 218.292 C 248.604 215.657,248.436 214.876,246.905 211.750 C 245.512 208.907,245.483 208.769,246.193 208.409 C 249.149 206.910,252.829 203.661,258.549 197.500 C 264.347 191.255,266.675 189.010,268.117 188.273 C 268.872 187.887,268.890 187.916,268.394 188.708 C 267.158 190.686,264.810 193.169,257.833 199.881 C 249.733 207.674,249.375 208.038,248.999 208.868 C 248.514 209.937,248.565 211.533,249.153 213.705 C 250.318 218.002,250.241 219.377,248.660 222.493 C 247.120 225.530,247.183 226.030,248.966 224.895 C 253.445 222.046,265.737 208.920,275.402 196.667 C 280.052 190.771,286.493 178.909,289.094 171.449 C 290.719 166.791,295.584 146.333,295.067 146.333 C 294.515 146.333,293.668 147.325,292.218 149.667 C 290.391 152.615,290.531 152.428,290.051 152.573 L 289.685 152.683 290.066 151.710 C 290.276 151.175,290.903 150.021,291.460 149.146 C 292.017 148.271,292.585 147.286,292.723 146.957 L 292.973 146.358 292.111 146.862 C 288.538 148.954,281.326 154.431,264.833 167.579 C 260.021 171.415,255.538 174.965,254.871 175.467 C 252.651 177.138,253.872 176.625,256.917 174.608 C 258.635 173.469,260.458 172.088,265.471 168.127 C 272.195 162.813,274.819 161.020,276.997 160.251 L 277.679 160.010 277.381 160.517 C 276.082 162.723,264.221 174.503,257.417 180.344 C 253.520 183.689,249.560 186.459,248.016 186.919 C 247.092 187.195,248.149 182.660,251.494 172.000 C 264.806 129.581,265.144 127.291,260.767 109.167 C 258.593 100.160,257.376 96.328,256.568 95.943 C 255.990 95.668,255.965 95.667,256.070 95.942 C 256.171 96.206,256.152 96.205,255.844 95.927 C 255.659 95.759,255.543 95.565,255.586 95.495 C 255.629 95.426,255.480 94.966,255.255 94.474 C 254.791 93.460,254.190 91.030,253.675 88.083 C 252.938 83.863,251.950 80.333,251.506 80.333 C 251.439 80.333,251.259 80.720,251.106 81.192 M129.818 94.193 C 129.380 95.233,129.528 98.818,130.147 102.167 C 132.657 115.732,133.577 120.182,135.264 126.917 C 139.806 145.046,146.437 160.707,155.671 175.122 C 155.990 175.619,156.323 175.726,156.448 175.372 C 156.585 174.981,157.320 174.000,157.475 174.000 C 157.544 174.000,157.760 174.329,157.955 174.730 C 158.338 175.519,159.458 176.509,159.278 175.900 C 159.226 175.726,159.068 175.124,158.926 174.563 C 158.563 173.127,157.515 170.131,156.359 167.227 C 153.610 160.324,149.110 149.706,147.079 145.333 C 145.822 142.629,143.838 138.354,142.668 135.833 C 137.021 123.663,135.577 119.238,132.906 105.917 C 130.645 94.639,130.255 93.158,129.818 94.193 M275.196 94.330 C 273.813 95.713,272.706 98.939,272.323 102.707 C 272.076 105.127,271.517 107.181,269.882 111.667 C 267.318 118.700,266.049 123.432,264.517 131.672 C 263.267 138.395,261.712 144.358,256.997 160.500 C 254.774 168.110,253.333 173.264,253.333 173.603 C 253.333 174.075,255.397 172.890,258.207 170.804 C 264.368 166.230,264.794 165.455,266.430 155.833 C 266.987 152.559,267.697 148.724,268.604 144.091 C 269.207 141.014,270.521 137.225,270.247 139.352 C 269.962 141.569,269.320 145.409,268.403 150.380 C 266.790 159.119,266.168 163.402,266.469 163.702 C 266.730 163.963,267.272 161.583,268.581 154.417 C 269.871 147.360,270.482 144.856,271.104 144.083 C 271.673 143.376,271.147 147.360,269.432 156.750 C 269.013 159.042,268.628 161.163,268.577 161.464 C 268.256 163.334,273.981 159.786,275.546 157.145 C 278.661 151.887,279.800 134.651,277.739 123.952 C 277.025 120.249,276.883 117.826,276.747 107.000 C 276.627 97.437,276.397 93.833,275.908 93.833 C 275.789 93.833,275.469 94.057,275.196 94.330 M132.833 98.603 C 132.833 114.740,157.090 166.168,167.523 172.151 C 168.742 172.850,168.731 172.860,168.606 171.239 C 168.413 168.728,167.677 167.122,165.252 163.917 C 159.372 156.148,147.117 135.995,145.792 131.917 C 145.429 130.798,145.503 130.904,148.454 135.750 C 157.123 149.987,166.874 164.014,167.599 163.290 C 167.755 163.134,166.846 155.907,166.504 154.583 C 165.925 152.345,164.908 150.549,162.161 146.917 C 149.975 130.799,140.569 115.275,135.975 103.696 C 134.662 100.387,133.838 98.719,133.239 98.157 L 132.833 97.775 132.833 98.603 M110.667 143.738 C 110.667 143.890,114.547 149.993,117.721 154.833 C 119.555 157.629,122.389 161.958,124.019 164.452 C 133.867 179.523,138.146 185.572,141.233 188.792 C 142.299 189.903,142.410 189.890,141.979 188.708 C 139.616 182.236,127.975 163.905,121.890 157.075 C 118.635 153.422,117.541 151.963,117.084 150.667 L 116.833 149.957 117.525 150.068 C 118.422 150.211,120.051 151.035,122.198 152.431 C 123.915 153.547,126.371 154.833,126.785 154.833 C 127.665 154.833,126.134 153.036,124.333 151.955 C 123.554 151.487,121.604 150.232,120.000 149.166 C 114.450 145.478,110.667 143.278,110.667 143.738 M200.500 178.779 C 194.471 179.755,189.411 182.823,185.627 187.798 C 181.895 192.703,178.035 198.829,177.646 200.461 C 176.879 203.678,176.881 210.261,177.650 213.800 C 178.073 215.749,178.097 215.751,179.485 213.936 C 180.637 212.431,181.167 211.940,181.167 212.379 C 181.167 212.698,179.837 224.384,179.764 224.708 C 179.473 225.996,180.553 223.658,181.751 220.408 C 186.804 206.696,193.184 200.758,208.458 195.548 C 210.829 194.739,210.822 194.744,210.356 194.147 C 209.733 193.349,209.749 193.031,210.419 192.905 C 211.601 192.684,214.671 192.944,216.000 193.379 C 216.688 193.604,217.505 193.836,217.817 193.895 L 218.383 194.002 218.279 192.543 C 217.763 185.323,213.837 184.085,203.292 187.817 C 201.872 188.320,200.291 188.503,200.097 188.188 C 199.926 187.913,202.616 186.852,205.845 185.922 C 209.183 184.960,211.874 183.813,211.966 183.314 C 212.154 182.293,208.401 179.453,206.167 178.927 C 205.158 178.689,201.626 178.597,200.500 178.779 M228.743 182.968 C 224.995 184.538,220.415 190.561,218.915 195.894 C 218.120 198.720,218.324 199.071,220.092 197.921 C 221.758 196.838,222.271 196.647,223.375 196.701 L 224.400 196.750 225.111 198.083 C 226.439 200.572,226.534 201.349,226.486 209.246 C 226.428 218.768,226.743 219.194,228.836 212.417 C 229.825 209.210,229.990 208.831,230.773 207.958 L 231.333 207.332 231.333 208.347 C 231.333 213.490,228.792 223.937,226.250 229.250 C 225.064 231.728,224.587 232.283,223.163 232.847 C 221.823 233.377,221.957 233.189,219.687 237.765 C 216.909 243.369,216.372 244.910,217.375 244.400 C 220.433 242.848,228.143 233.635,231.588 227.417 C 236.496 218.560,239.365 207.293,239.398 196.750 C 239.416 190.752,239.498 190.946,234.379 184.814 C 232.653 182.747,230.754 182.125,228.743 182.968 M297.603 200.775 C 296.605 201.004,294.318 201.604,292.519 202.107 C 290.721 202.610,287.862 203.393,286.167 203.848 C 284.471 204.303,282.521 204.828,281.833 205.015 C 278.170 206.010,276.123 207.605,274.670 210.599 C 273.471 213.070,273.414 213.138,271.213 214.705 C 268.738 216.467,267.064 218.043,264.791 220.750 C 261.626 224.518,260.945 226.465,260.419 233.250 C 260.284 234.992,260.128 236.885,260.073 237.458 C 259.981 238.419,259.999 238.500,260.303 238.500 C 260.928 238.500,263.587 237.010,265.083 235.822 C 267.557 233.857,268.263 233.362,269.586 232.665 C 272.839 230.952,270.809 233.567,267.057 235.921 C 262.808 238.589,260.002 240.528,259.437 241.188 C 257.370 243.603,260.518 241.948,266.583 237.430 C 268.325 236.133,270.125 234.804,270.583 234.476 C 272.424 233.158,275.833 231.440,275.833 231.830 C 275.833 232.307,275.008 234.092,274.234 235.288 C 273.290 236.745,272.931 237.388,272.654 238.116 L 272.483 238.567 272.843 238.242 C 274.584 236.669,294.622 209.265,296.158 206.355 C 296.543 205.626,292.871 208.529,284.583 215.507 C 274.810 223.736,269.926 227.646,267.932 228.837 L 267.280 229.227 267.765 228.332 C 268.074 227.762,268.574 227.191,269.142 226.760 C 270.225 225.939,287.148 212.243,289.833 210.015 C 295.279 205.496,300.167 201.007,300.167 200.526 C 300.167 200.252,299.663 200.300,297.603 200.775 M210.583 212.744 C 205.579 213.536,201.695 216.532,199.895 220.988 C 198.309 224.916,199.141 229.672,201.008 227.348 C 201.277 227.014,201.722 226.607,201.998 226.444 L 202.500 226.148 202.500 233.496 C 202.500 242.779,202.539 242.650,199.784 242.449 C 196.888 242.238,196.132 241.776,193.819 238.806 C 191.523 235.856,189.062 233.383,188.742 233.703 C 188.174 234.271,193.752 249.638,195.202 251.500 C 195.381 251.729,196.094 252.501,196.788 253.214 L 198.049 254.512 198.698 254.083 C 199.054 253.847,199.482 253.431,199.647 253.158 L 199.949 252.663 200.328 254.123 C 200.808 255.971,200.808 255.971,201.838 255.461 C 202.787 254.992,203.691 255.090,204.017 255.698 C 204.131 255.911,204.372 256.000,204.831 256.000 C 205.789 256.000,205.861 255.658,206.164 249.667 C 206.387 245.253,206.780 244.044,209.146 240.494 C 210.663 238.218,212.415 236.351,214.954 234.303 C 217.954 231.884,218.333 231.158,218.333 227.838 C 218.333 221.616,216.811 216.971,213.671 213.615 C 212.525 212.389,212.633 212.420,210.583 212.744 M257.712 223.176 C 256.890 223.338,255.860 223.901,254.292 225.044 C 252.641 226.248,252.789 226.413,255.000 225.833 C 257.820 225.094,258.580 225.500,258.148 227.512 C 257.656 229.809,254.727 234.500,253.785 234.500 C 253.572 234.500,253.091 234.145,252.590 233.619 C 251.571 232.551,250.667 231.882,250.667 232.197 C 250.667 232.318,250.850 233.092,251.074 233.917 C 254.063 244.920,252.986 249.833,247.585 249.833 C 245.879 249.833,245.412 250.041,244.901 251.030 C 244.595 251.623,244.536 251.552,245.625 251.907 C 246.292 252.126,246.760 252.165,247.601 252.075 L 248.703 251.957 248.583 252.354 C 248.517 252.572,248.240 253.263,247.968 253.891 C 247.696 254.518,247.373 255.318,247.250 255.667 L 247.026 256.303 247.481 256.172 C 249.408 255.620,251.236 253.780,253.127 250.491 C 257.799 242.368,261.426 227.589,259.681 223.792 C 259.283 222.925,259.166 222.889,257.712 223.176 M169.764 231.313 C 169.729 231.370,169.384 232.500,168.996 233.824 L 168.291 236.231 168.770 236.622 C 170.208 237.796,175.032 239.435,175.140 238.787 C 175.387 237.305,174.241 233.793,173.141 232.660 C 172.306 231.800,170.021 230.888,169.764 231.313 M235.238 232.826 C 234.419 233.372,232.737 234.729,231.500 235.842 C 229.374 237.754,218.629 246.638,213.308 250.883 C 211.029 252.701,209.547 254.122,209.143 254.878 C 208.592 255.907,212.135 253.614,219.083 248.445 C 222.112 246.192,224.555 244.553,227.333 242.912 C 235.958 237.819,238.829 235.970,238.832 235.511 C 238.838 234.421,237.443 231.833,236.848 231.833 C 236.781 231.833,236.056 232.280,235.238 232.826 M172.586 240.875 C 172.650 241.265,173.077 242.558,173.536 243.750 C 173.995 244.942,174.769 247.028,175.256 248.385 C 176.252 251.161,176.413 251.459,177.147 251.884 L 177.667 252.186 177.667 251.253 C 177.667 246.020,176.158 242.008,173.698 240.697 C 172.443 240.028,172.448 240.027,172.586 240.875 M180.833 242.125 C 180.833 243.616,182.259 245.334,184.987 247.128 C 186.048 247.827,187.704 248.970,188.667 249.669 C 190.741 251.176,192.011 251.997,193.182 252.591 L 194.042 253.027 193.703 252.555 C 193.194 251.845,190.821 249.598,188.667 247.786 C 187.612 246.899,185.956 245.478,184.985 244.628 C 183.003 242.892,180.833 241.584,180.833 242.125 M180.098 246.207 C 180.052 246.506,179.934 247.762,179.837 249.000 C 179.739 250.237,179.621 251.492,179.573 251.787 C 179.499 252.245,179.543 252.336,179.868 252.407 C 180.078 252.453,181.900 252.867,183.918 253.327 C 189.890 254.689,193.216 255.178,193.632 254.755 C 193.801 254.582,192.713 253.689,191.861 253.301 C 191.253 253.024,190.798 252.975,188.984 252.989 C 185.848 253.014,184.958 252.373,184.098 249.467 C 183.495 247.431,183.074 246.803,181.967 246.288 C 180.450 245.583,180.197 245.572,180.098 246.207 M257.443 248.740 C 255.784 248.992,255.749 249.014,255.598 249.866 C 255.467 250.601,255.539 250.632,258.750 251.190 C 262.507 251.844,269.407 251.309,268.670 250.421 C 267.593 249.122,261.211 248.167,257.443 248.740 M244.113 256.792 C 243.734 261.614,243.692 261.368,244.767 260.632 C 246.567 259.398,246.775 256.564,245.122 255.780 C 244.249 255.365,244.223 255.391,244.113 256.792 M162.175 257.458 C 161.818 258.746,162.145 259.747,163.146 260.427 C 164.385 261.269,164.564 260.787,163.904 258.391 C 163.773 257.919,163.667 257.375,163.667 257.183 C 163.667 256.463,162.386 256.700,162.175 257.458 M186.000 259.301 C 186.000 259.657,187.048 261.016,187.930 261.805 C 191.122 264.656,193.412 265.112,194.564 263.124 C 194.958 262.444,195.595 260.540,195.470 260.415 C 195.280 260.225,186.000 259.133,186.000 259.301 M162.888 265.920 C 161.697 267.163,162.141 267.574,164.682 267.580 C 166.591 267.584,166.625 267.564,166.186 266.704 C 165.315 264.997,164.058 264.698,162.888 265.920 M167.417 268.457 C 163.682 268.978,162.147 270.686,163.019 273.350 C 163.591 275.098,165.980 274.886,166.949 273.000 C 167.786 271.373,168.095 268.362,167.417 268.457 M244.583 268.845 C 244.217 268.923,243.692 269.051,243.417 269.130 L 242.917 269.273 242.833 271.307 L 242.750 273.341 242.000 272.962 C 241.446 272.682,241.056 272.290,240.508 271.464 C 239.644 270.161,239.647 270.162,239.849 271.250 C 240.824 276.479,247.050 275.608,247.301 270.208 L 247.373 268.667 246.312 268.685 C 245.728 268.695,244.950 268.767,244.583 268.845 M236.839 271.286 C 235.067 273.400,233.193 278.611,230.227 289.667 C 229.354 292.921,227.900 297.983,226.996 300.917 C 223.290 312.941,221.667 319.470,221.667 322.350 L 221.667 323.333 222.458 323.333 C 224.045 323.331,226.876 322.778,228.225 322.206 C 229.037 321.862,229.187 321.458,229.060 319.954 C 228.551 313.922,233.488 296.926,237.282 291.644 C 238.009 290.632,238.060 290.692,238.298 292.833 C 239.344 302.248,240.107 308.000,240.311 308.000 C 240.610 308.000,241.847 307.047,242.241 306.512 C 244.712 303.163,245.781 292.817,244.756 282.167 C 244.251 276.922,244.018 276.294,242.348 275.685 C 241.073 275.221,240.024 274.271,238.842 272.513 C 237.508 270.529,237.485 270.515,236.839 271.286 M245.762 282.371 C 246.051 287.683,246.237 287.953,253.223 293.201 C 255.438 294.865,258.600 297.321,260.250 298.660 C 267.012 304.148,269.397 305.667,271.342 305.725 C 274.124 305.807,274.409 300.609,271.741 298.447 C 266.037 293.826,250.076 282.721,246.660 280.997 L 245.660 280.492 245.762 282.371 M174.580 291.250 C 174.911 298.228,176.577 306.380,179.672 316.167 C 181.082 320.623,181.635 321.185,184.957 321.532 C 185.986 321.640,186.883 321.673,186.950 321.605 C 187.523 321.032,176.855 292.756,174.963 289.833 L 174.477 289.083 174.580 291.250 M223.924 291.351 C 220.264 294.775,216.255 302.330,214.779 308.583 C 214.043 311.704,213.714 316.667,214.244 316.667 C 216.396 316.667,224.659 297.582,225.122 291.542 C 225.234 290.083,225.273 290.090,223.924 291.351 M207.795 301.092 C 205.785 301.580,204.355 302.681,203.612 304.313 C 202.926 305.819,203.018 311.036,203.761 312.794 L 204.024 313.417 204.433 312.917 C 205.800 311.248,208.710 304.241,209.227 301.375 C 209.341 300.745,209.279 300.733,207.795 301.092 M164.750 321.450 C 157.330 321.724,139.667 325.417,139.667 326.694 C 139.667 327.081,140.692 328.812,141.067 329.057 C 141.552 329.375,143.249 329.423,145.007 329.169 C 152.171 328.132,170.933 327.778,174.316 328.616 L 174.716 328.715 174.316 328.923 C 173.773 329.205,171.908 329.559,167.750 330.170 C 161.128 331.143,157.644 332.188,156.318 333.600 L 155.951 333.990 156.434 334.174 C 157.628 334.629,158.913 334.708,167.167 334.831 C 183.246 335.071,184.971 335.750,192.563 344.828 C 197.277 350.465,198.288 351.499,199.750 352.181 C 201.085 352.805,202.400 352.457,202.882 351.353 C 203.016 351.047,203.075 348.675,203.078 343.417 L 203.083 335.917 203.552 334.962 C 203.810 334.437,204.214 333.856,204.450 333.670 C 206.940 331.712,216.262 332.271,228.417 335.108 C 234.567 336.544,236.488 337.177,240.500 339.090 C 246.919 342.150,248.145 342.234,253.250 339.964 C 258.647 337.564,261.302 335.556,261.930 333.397 C 262.077 332.890,262.172 332.453,262.140 332.426 C 262.109 332.399,258.296 331.835,253.667 331.173 C 249.037 330.511,245.232 329.952,245.210 329.931 C 245.188 329.910,245.713 329.654,246.377 329.363 C 248.703 328.344,252.492 328.244,257.250 329.076 C 260.126 329.579,262.184 329.763,263.069 329.597 C 264.430 329.342,266.012 327.005,265.225 326.412 C 261.799 323.831,250.449 322.344,237.882 322.829 C 230.032 323.131,224.911 324.037,217.025 326.517 C 205.654 330.092,203.425 330.001,192.452 325.514 C 184.020 322.066,176.788 321.005,164.750 321.450 " stroke="none" fill="#fafa4b" fill-rule="evenodd"></path><path id="path1" d="M399.916 199.917 C 399.916 309.825,399.935 354.763,399.958 299.778 C 399.981 244.793,399.981 154.868,399.958 99.945 C 399.935 45.021,399.916 90.008,399.916 199.917 M223.883 83.833 C 223.883 84.337,223.915 84.544,223.953 84.292 C 223.991 84.040,223.991 83.627,223.953 83.375 C 223.915 83.123,223.883 83.329,223.883 83.833 M192.205 91.167 C 192.205 91.487,192.240 91.619,192.282 91.458 C 192.323 91.298,192.323 91.035,192.282 90.875 C 192.240 90.715,192.205 90.846,192.205 91.167 M192.205 93.000 C 192.205 93.321,192.240 93.452,192.282 93.292 C 192.323 93.131,192.323 92.869,192.282 92.708 C 192.240 92.548,192.205 92.679,192.205 93.000 M215.395 97.333 C 215.395 98.296,215.423 98.690,215.456 98.208 C 215.490 97.727,215.490 96.940,215.456 96.458 C 215.423 95.977,215.395 96.371,215.395 97.333 M276.717 101.167 C 276.717 101.671,276.748 101.877,276.786 101.625 C 276.824 101.373,276.824 100.960,276.786 100.708 C 276.748 100.456,276.717 100.662,276.717 101.167 M215.397 103.250 C 215.397 104.350,215.424 104.778,215.457 104.202 C 215.490 103.625,215.489 102.725,215.456 102.202 C 215.423 101.678,215.397 102.150,215.397 103.250 M215.205 113.167 C 215.205 113.487,215.240 113.619,215.282 113.458 C 215.323 113.298,215.323 113.035,215.282 112.875 C 215.240 112.715,215.205 112.846,215.205 113.167 M165.388 132.750 C 165.389 133.392,165.419 133.634,165.455 133.288 C 165.491 132.942,165.490 132.417,165.454 132.121 C 165.417 131.825,165.387 132.108,165.388 132.750 M271.824 166.625 L 271.250 167.250 271.875 166.676 C 272.457 166.141,272.577 166.000,272.449 166.000 C 272.422 166.000,272.140 166.281,271.824 166.625 M254.991 219.792 L 254.417 220.417 255.042 219.842 C 255.385 219.526,255.667 219.245,255.667 219.217 C 255.667 219.090,255.526 219.210,254.991 219.792 M237.714 222.917 C 237.716 223.375,237.748 223.543,237.786 223.289 C 237.825 223.036,237.824 222.661,237.784 222.456 C 237.744 222.251,237.713 222.458,237.714 222.917 M260.205 227.000 C 260.205 227.321,260.240 227.452,260.282 227.292 C 260.323 227.131,260.323 226.869,260.282 226.708 C 260.240 226.548,260.205 226.679,260.205 227.000 M221.324 241.125 L 220.750 241.750 221.375 241.176 C 221.719 240.860,222.000 240.578,222.000 240.551 C 222.000 240.423,221.859 240.543,221.324 241.125 M205.375 264.417 C 205.377 264.783,205.411 264.914,205.451 264.706 C 205.491 264.499,205.490 264.199,205.448 264.040 C 205.406 263.880,205.374 264.050,205.375 264.417 M165.960 334.951 C 166.168 334.991,166.468 334.990,166.627 334.948 C 166.786 334.906,166.617 334.874,166.250 334.875 C 165.883 334.877,165.753 334.911,165.960 334.951 M171.960 334.951 C 172.168 334.991,172.468 334.990,172.627 334.948 C 172.786 334.906,172.617 334.874,172.250 334.875 C 171.883 334.877,171.753 334.911,171.960 334.951 " stroke="none" fill="#5b5b1d" fill-rule="evenodd"></path><path id="path2" d="M220.167 40.917 C 220.665 41.421,221.109 41.833,221.155 41.833 C 221.201 41.833,220.831 41.421,220.333 40.917 C 219.835 40.412,219.391 40.000,219.345 40.000 C 219.299 40.000,219.669 40.412,220.167 40.917 M190.744 45.375 L 189.917 46.250 190.792 45.423 C 191.273 44.968,191.667 44.574,191.667 44.548 C 191.667 44.424,191.512 44.562,190.744 45.375 M187.872 81.000 C 187.872 81.321,187.906 81.452,187.948 81.292 C 187.990 81.131,187.990 80.869,187.948 80.708 C 187.906 80.548,187.872 80.679,187.872 81.000 M251.039 88.500 C 251.039 88.821,251.073 88.952,251.115 88.792 C 251.157 88.631,251.157 88.369,251.115 88.208 C 251.073 88.048,251.039 88.179,251.039 88.500 M192.205 94.000 C 192.205 94.321,192.240 94.452,192.282 94.292 C 192.323 94.131,192.323 93.869,192.282 93.708 C 192.240 93.548,192.205 93.679,192.205 94.000 M215.389 100.167 C 215.389 100.854,215.419 101.135,215.455 100.792 C 215.491 100.448,215.491 99.885,215.455 99.542 C 215.419 99.198,215.389 99.479,215.389 100.167 M171.712 111.833 C 171.712 112.246,171.745 112.415,171.784 112.208 C 171.824 112.002,171.824 111.665,171.784 111.458 C 171.745 111.252,171.712 111.421,171.712 111.833 M276.872 112.833 C 276.872 113.154,276.906 113.285,276.948 113.125 C 276.990 112.965,276.990 112.702,276.948 112.542 C 276.906 112.381,276.872 112.513,276.872 112.833 M145.209 113.083 C 145.211 113.450,145.245 113.580,145.285 113.373 C 145.324 113.166,145.323 112.866,145.281 112.706 C 145.239 112.547,145.207 112.717,145.209 113.083 M202.048 118.583 C 202.049 119.042,202.081 119.209,202.120 118.956 C 202.158 118.703,202.157 118.328,202.117 118.123 C 202.078 117.918,202.046 118.125,202.048 118.583 M274.240 158.875 L 273.750 159.417 274.292 158.927 C 274.590 158.658,274.833 158.414,274.833 158.385 C 274.833 158.257,274.696 158.370,274.240 158.875 M270.658 167.792 L 270.083 168.417 270.708 167.842 C 271.290 167.308,271.410 167.167,271.283 167.167 C 271.255 167.167,270.974 167.448,270.658 167.792 M224.833 185.583 C 224.428 185.996,224.135 186.333,224.181 186.333 C 224.226 186.333,224.595 185.996,225.000 185.583 C 225.405 185.171,225.699 184.833,225.653 184.833 C 225.607 184.833,225.238 185.171,224.833 185.583 M222.406 187.042 L 221.917 187.583 222.458 187.094 C 222.963 186.638,223.077 186.500,222.948 186.500 C 222.919 186.500,222.675 186.744,222.406 187.042 M239.559 196.250 C 239.559 197.075,239.587 197.434,239.622 197.047 C 239.657 196.660,239.657 195.985,239.623 195.547 C 239.588 195.109,239.560 195.425,239.559 196.250 M240.539 202.667 C 240.539 202.987,240.573 203.119,240.615 202.958 C 240.657 202.798,240.657 202.535,240.615 202.375 C 240.573 202.215,240.539 202.346,240.539 202.667 M267.333 217.750 C 266.928 218.162,266.635 218.500,266.681 218.500 C 266.726 218.500,267.095 218.162,267.500 217.750 C 267.905 217.338,268.199 217.000,268.153 217.000 C 268.107 217.000,267.738 217.338,267.333 217.750 M237.705 224.167 C 237.705 224.487,237.740 224.619,237.782 224.458 C 237.823 224.298,237.823 224.035,237.782 223.875 C 237.740 223.715,237.705 223.846,237.705 224.167 M198.875 225.083 C 198.877 225.450,198.911 225.580,198.951 225.373 C 198.991 225.166,198.990 224.866,198.948 224.706 C 198.906 224.547,198.874 224.717,198.875 225.083 M226.075 244.875 L 225.417 245.583 226.125 244.925 C 226.515 244.562,226.833 244.243,226.833 244.216 C 226.833 244.090,226.688 244.216,226.075 244.875 M210.324 253.292 L 209.750 253.917 210.375 253.342 C 210.719 253.026,211.000 252.745,211.000 252.717 C 211.000 252.590,210.859 252.710,210.324 253.292 M186.833 260.885 C 186.833 260.914,187.077 261.158,187.375 261.427 L 187.917 261.917 187.427 261.375 C 186.971 260.870,186.833 260.757,186.833 260.885 M242.712 270.000 C 242.712 270.412,242.745 270.581,242.784 270.375 C 242.824 270.169,242.824 269.831,242.784 269.625 C 242.745 269.419,242.712 269.587,242.712 270.000 M205.214 272.250 C 205.216 272.708,205.248 272.876,205.286 272.623 C 205.325 272.369,205.324 271.994,205.284 271.789 C 205.244 271.584,205.213 271.792,205.214 272.250 M207.496 275.466 L 207.576 276.250 207.633 275.603 C 207.664 275.247,207.628 274.894,207.552 274.819 C 207.477 274.744,207.452 275.035,207.496 275.466 M247.826 289.042 C 248.517 289.778,248.667 289.910,248.667 289.785 C 248.667 289.758,248.310 289.402,247.875 288.993 L 247.083 288.250 247.826 289.042 M213.890 315.583 C 213.891 316.317,213.920 316.596,213.956 316.204 C 213.991 315.812,213.990 315.212,213.954 314.871 C 213.919 314.529,213.890 314.850,213.890 315.583 M170.125 321.287 C 170.423 321.324,170.910 321.324,171.208 321.287 C 171.506 321.250,171.262 321.220,170.667 321.220 C 170.071 321.220,169.827 321.250,170.125 321.287 M221.545 322.833 C 221.545 323.246,221.578 323.415,221.618 323.208 C 221.657 323.002,221.657 322.665,221.618 322.458 C 221.578 322.252,221.545 322.421,221.545 322.833 M251.461 328.621 C 251.761 328.658,252.211 328.657,252.461 328.619 C 252.712 328.581,252.467 328.551,251.917 328.552 C 251.367 328.553,251.162 328.584,251.461 328.621 M211.542 332.615 C 211.702 332.657,211.965 332.657,212.125 332.615 C 212.285 332.573,212.154 332.539,211.833 332.539 C 211.512 332.539,211.381 332.573,211.542 332.615 M167.127 334.951 C 167.334 334.991,167.634 334.990,167.794 334.948 C 167.953 334.906,167.783 334.874,167.417 334.875 C 167.050 334.877,166.920 334.911,167.127 334.951 M170.794 334.951 C 171.001 334.991,171.301 334.990,171.460 334.948 C 171.620 334.906,171.450 334.874,171.083 334.875 C 170.717 334.877,170.586 334.911,170.794 334.951 " stroke="none" fill="#444444" fill-rule="evenodd"></path><path id="path3" d="M99.958 0.125 C 154.981 0.148,245.019 0.148,300.042 0.125 C 355.065 0.102,310.046 0.083,200.000 0.083 C 89.954 0.083,44.935 0.102,99.958 0.125 M215.000 35.552 C 215.000 35.581,215.244 35.825,215.542 36.094 L 216.083 36.583 215.594 36.042 C 215.138 35.537,215.000 35.423,215.000 35.552 M226.083 47.000 C 226.535 47.458,226.942 47.833,226.987 47.833 C 227.033 47.833,226.701 47.458,226.250 47.000 C 225.799 46.542,225.392 46.167,225.346 46.167 C 225.300 46.167,225.632 46.542,226.083 47.000 M211.724 52.750 C 211.724 53.483,211.754 53.763,211.789 53.371 C 211.824 52.979,211.824 52.379,211.788 52.037 C 211.752 51.696,211.723 52.017,211.724 52.750 M167.406 64.042 L 166.917 64.583 167.458 64.094 C 167.756 63.825,168.000 63.581,168.000 63.552 C 168.000 63.423,167.862 63.537,167.406 64.042 M222.714 75.583 C 222.716 76.042,222.748 76.209,222.786 75.956 C 222.825 75.703,222.824 75.328,222.784 75.123 C 222.744 74.918,222.713 75.125,222.714 75.583 M187.888 78.583 C 187.889 79.225,187.919 79.467,187.955 79.121 C 187.991 78.775,187.990 78.250,187.954 77.955 C 187.917 77.659,187.887 77.942,187.888 78.583 M222.879 80.167 C 222.879 80.579,222.911 80.748,222.951 80.542 C 222.991 80.335,222.991 79.998,222.951 79.792 C 222.911 79.585,222.879 79.754,222.879 80.167 M223.885 82.083 C 223.886 82.633,223.917 82.838,223.954 82.539 C 223.991 82.239,223.990 81.789,223.952 81.539 C 223.914 81.288,223.884 81.533,223.885 82.083 M223.045 84.833 C 223.045 85.246,223.078 85.415,223.118 85.208 C 223.157 85.002,223.157 84.665,223.118 84.458 C 223.078 84.252,223.045 84.421,223.045 84.833 M224.045 87.667 C 224.045 88.079,224.078 88.248,224.118 88.042 C 224.157 87.835,224.157 87.498,224.118 87.292 C 224.078 87.085,224.045 87.254,224.045 87.667 M188.553 88.167 C 188.553 88.763,188.584 89.006,188.621 88.708 C 188.658 88.410,188.658 87.923,188.621 87.625 C 188.584 87.327,188.553 87.571,188.553 88.167 M212.974 87.875 C 212.941 87.990,212.957 88.533,213.012 89.083 L 213.111 90.083 213.139 88.875 C 213.165 87.731,213.112 87.407,212.974 87.875 M223.212 89.500 C 223.212 89.912,223.245 90.081,223.284 89.875 C 223.324 89.669,223.324 89.331,223.284 89.125 C 223.245 88.919,223.212 89.087,223.212 89.500 M224.209 91.583 C 224.211 91.950,224.245 92.080,224.285 91.873 C 224.324 91.666,224.323 91.366,224.281 91.206 C 224.239 91.047,224.207 91.217,224.209 91.583 M251.039 92.333 C 251.039 92.654,251.073 92.785,251.115 92.625 C 251.157 92.465,251.157 92.202,251.115 92.042 C 251.073 91.881,251.039 92.013,251.039 92.333 M215.390 94.417 C 215.391 95.150,215.420 95.429,215.456 95.037 C 215.491 94.645,215.490 94.045,215.454 93.704 C 215.419 93.363,215.390 93.683,215.390 94.417 M223.379 94.167 C 223.379 94.579,223.411 94.748,223.451 94.542 C 223.491 94.335,223.491 93.998,223.451 93.792 C 223.411 93.585,223.379 93.754,223.379 94.167 M224.375 95.417 C 224.377 95.783,224.411 95.914,224.451 95.706 C 224.491 95.499,224.490 95.199,224.448 95.040 C 224.406 94.880,224.374 95.050,224.375 95.417 M276.539 97.500 C 276.539 97.821,276.573 97.952,276.615 97.792 C 276.657 97.631,276.657 97.369,276.615 97.208 C 276.573 97.048,276.539 97.179,276.539 97.500 M223.545 98.833 C 223.545 99.246,223.578 99.415,223.618 99.208 C 223.657 99.002,223.657 98.665,223.618 98.458 C 223.578 98.252,223.545 98.421,223.545 98.833 M224.542 99.083 C 224.544 99.450,224.578 99.580,224.618 99.373 C 224.658 99.166,224.656 98.866,224.615 98.706 C 224.573 98.547,224.540 98.717,224.542 99.083 M276.737 105.333 C 276.737 107.212,276.761 107.981,276.791 107.042 C 276.821 106.102,276.821 104.565,276.791 103.625 C 276.761 102.685,276.737 103.454,276.737 105.333 M224.712 103.000 C 224.712 103.412,224.745 103.581,224.784 103.375 C 224.824 103.169,224.824 102.831,224.784 102.625 C 224.745 102.419,224.712 102.587,224.712 103.000 M223.712 103.500 C 223.712 103.912,223.745 104.081,223.784 103.875 C 223.824 103.669,223.824 103.331,223.784 103.125 C 223.745 102.919,223.712 103.087,223.712 103.500 M215.396 107.000 C 215.396 108.054,215.423 108.485,215.456 107.958 C 215.490 107.431,215.490 106.569,215.456 106.042 C 215.423 105.515,215.396 105.946,215.396 107.000 M224.875 107.083 C 224.877 107.450,224.911 107.580,224.951 107.373 C 224.991 107.166,224.990 106.866,224.948 106.706 C 224.906 106.547,224.874 106.717,224.875 107.083 M223.881 108.083 C 223.882 108.542,223.915 108.709,223.953 108.456 C 223.991 108.203,223.990 107.828,223.951 107.623 C 223.911 107.418,223.880 107.625,223.881 108.083 M225.045 111.167 C 225.045 111.579,225.078 111.748,225.118 111.542 C 225.157 111.335,225.157 110.998,225.118 110.792 C 225.078 110.585,225.045 110.754,225.045 111.167 M224.048 112.750 C 224.049 113.208,224.081 113.376,224.120 113.123 C 224.158 112.869,224.157 112.494,224.117 112.289 C 224.078 112.084,224.046 112.292,224.048 112.750 M215.218 114.583 C 215.219 115.133,215.250 115.338,215.287 115.039 C 215.325 114.739,215.324 114.289,215.286 114.039 C 215.248 113.788,215.217 114.033,215.218 114.583 M276.887 115.167 C 276.887 115.763,276.917 116.006,276.954 115.708 C 276.991 115.410,276.991 114.923,276.954 114.625 C 276.917 114.327,276.887 114.571,276.887 115.167 M225.212 115.167 C 225.212 115.579,225.245 115.748,225.284 115.542 C 225.324 115.335,225.324 114.998,225.284 114.792 C 225.245 114.585,225.212 114.754,225.212 115.167 M185.039 115.833 C 185.039 116.154,185.073 116.285,185.115 116.125 C 185.157 115.965,185.157 115.702,185.115 115.542 C 185.073 115.381,185.039 115.513,185.039 115.833 M224.214 117.417 C 224.216 117.875,224.248 118.043,224.286 117.789 C 224.325 117.536,224.324 117.161,224.284 116.956 C 224.244 116.751,224.213 116.958,224.214 117.417 M225.372 118.667 C 225.372 118.987,225.406 119.119,225.448 118.958 C 225.490 118.798,225.490 118.535,225.448 118.375 C 225.406 118.215,225.372 118.346,225.372 118.667 M184.875 119.083 C 184.877 119.450,184.911 119.580,184.951 119.373 C 184.991 119.166,184.990 118.866,184.948 118.706 C 184.906 118.547,184.874 118.717,184.875 119.083 M183.567 121.083 C 183.567 122.458,183.593 122.999,183.624 122.284 C 183.655 121.569,183.655 120.444,183.624 119.784 C 183.592 119.124,183.566 119.708,183.567 121.083 M215.050 120.000 C 215.050 120.504,215.081 120.710,215.119 120.458 C 215.158 120.206,215.158 119.794,215.119 119.542 C 215.081 119.290,215.050 119.496,215.050 120.000 M224.379 122.000 C 224.379 122.412,224.411 122.581,224.451 122.375 C 224.491 122.169,224.491 121.831,224.451 121.625 C 224.411 121.419,224.379 121.587,224.379 122.000 M225.539 122.000 C 225.539 122.321,225.573 122.452,225.615 122.292 C 225.657 122.131,225.657 121.869,225.615 121.708 C 225.573 121.548,225.539 121.679,225.539 122.000 M184.712 122.833 C 184.712 123.246,184.745 123.415,184.784 123.208 C 184.824 123.002,184.824 122.665,184.784 122.458 C 184.745 122.252,184.712 122.421,184.712 122.833 M214.875 123.917 C 214.877 124.283,214.911 124.414,214.951 124.206 C 214.991 123.999,214.990 123.699,214.948 123.540 C 214.906 123.380,214.874 123.550,214.875 123.917 M225.709 125.417 C 225.711 125.783,225.745 125.914,225.785 125.706 C 225.824 125.499,225.823 125.199,225.781 125.040 C 225.739 124.880,225.707 125.050,225.709 125.417 M263.214 125.750 C 263.216 126.208,263.248 126.376,263.286 126.123 C 263.325 125.869,263.324 125.494,263.284 125.289 C 263.244 125.084,263.213 125.292,263.214 125.750 M178.709 125.750 C 178.711 126.117,178.745 126.247,178.785 126.040 C 178.824 125.832,178.823 125.532,178.781 125.373 C 178.739 125.214,178.707 125.383,178.709 125.750 M224.548 126.583 C 224.549 127.042,224.581 127.209,224.620 126.956 C 224.658 126.703,224.657 126.328,224.617 126.123 C 224.578 125.918,224.546 126.125,224.548 126.583 M184.474 127.419 C 184.441 127.833,184.466 128.301,184.529 128.461 C 184.592 128.620,184.649 128.281,184.655 127.708 C 184.669 126.498,184.561 126.326,184.474 127.419 M165.383 129.167 C 165.383 129.671,165.415 129.877,165.453 129.625 C 165.491 129.373,165.491 128.960,165.453 128.708 C 165.415 128.456,165.383 128.662,165.383 129.167 M225.875 128.917 C 225.877 129.283,225.911 129.414,225.951 129.206 C 225.991 128.999,225.990 128.699,225.948 128.540 C 225.906 128.380,225.874 128.550,225.875 128.917 M188.059 130.583 C 188.059 131.408,188.087 131.767,188.122 131.380 C 188.157 130.993,188.157 130.318,188.123 129.880 C 188.088 129.442,188.060 129.758,188.059 130.583 M159.889 131.667 C 159.889 132.354,159.919 132.635,159.955 132.292 C 159.991 131.948,159.991 131.385,159.955 131.042 C 159.919 130.698,159.889 130.979,159.889 131.667 M278.712 131.667 C 278.712 132.079,278.745 132.248,278.784 132.042 C 278.824 131.835,278.824 131.498,278.784 131.292 C 278.745 131.085,278.712 131.254,278.712 131.667 M178.714 131.917 C 178.716 132.375,178.748 132.543,178.786 132.289 C 178.825 132.036,178.824 131.661,178.784 131.456 C 178.744 131.251,178.713 131.458,178.714 131.917 M165.389 135.000 C 165.389 135.688,165.419 135.969,165.455 135.625 C 165.491 135.281,165.491 134.719,165.455 134.375 C 165.419 134.031,165.389 134.313,165.389 135.000 M158.545 136.500 C 158.545 136.912,158.578 137.081,158.618 136.875 C 158.657 136.669,158.657 136.331,158.618 136.125 C 158.578 135.919,158.545 136.087,158.545 136.500 M220.744 138.542 L 219.917 139.417 220.792 138.590 C 221.273 138.135,221.667 137.741,221.667 137.715 C 221.667 137.590,221.512 137.729,220.744 138.542 M278.712 138.667 C 278.712 139.079,278.745 139.248,278.784 139.042 C 278.824 138.835,278.824 138.498,278.784 138.292 C 278.745 138.085,278.712 138.254,278.712 138.667 M165.552 140.750 C 165.553 141.300,165.584 141.505,165.621 141.205 C 165.658 140.906,165.657 140.456,165.619 140.205 C 165.581 139.955,165.551 140.200,165.552 140.750 M272.991 165.458 L 272.417 166.083 273.042 165.509 C 273.623 164.974,273.743 164.833,273.616 164.833 C 273.588 164.833,273.307 165.115,272.991 165.458 M243.057 168.417 C 243.058 169.150,243.087 169.429,243.122 169.037 C 243.157 168.645,243.157 168.045,243.121 167.704 C 243.085 167.363,243.057 167.683,243.057 168.417 M266.491 171.958 L 265.917 172.583 266.542 172.009 C 266.885 171.693,267.167 171.412,267.167 171.384 C 267.167 171.257,267.026 171.377,266.491 171.958 M204.500 176.052 C 204.500 176.081,204.744 176.325,205.042 176.594 L 205.583 177.083 205.094 176.542 C 204.638 176.037,204.500 175.923,204.500 176.052 M202.458 178.621 C 202.756 178.658,203.244 178.658,203.542 178.621 C 203.840 178.584,203.596 178.553,203.000 178.553 C 202.404 178.553,202.160 178.584,202.458 178.621 M230.292 182.618 C 230.498 182.657,230.835 182.657,231.042 182.618 C 231.248 182.578,231.079 182.545,230.667 182.545 C 230.254 182.545,230.085 182.578,230.292 182.618 M265.573 190.208 L 265.083 190.750 265.625 190.260 C 266.130 189.804,266.243 189.667,266.115 189.667 C 266.086 189.667,265.842 189.910,265.573 190.208 M262.748 195.042 L 260.583 197.250 262.792 195.086 C 264.006 193.895,265.000 192.902,265.000 192.877 C 265.000 192.758,264.758 192.990,262.748 195.042 M175.539 197.333 C 175.539 197.654,175.573 197.785,175.615 197.625 C 175.657 197.465,175.657 197.202,175.615 197.042 C 175.573 196.881,175.539 197.012,175.539 197.333 M239.372 199.333 C 239.372 199.654,239.406 199.785,239.448 199.625 C 239.490 199.465,239.490 199.202,239.448 199.042 C 239.406 198.881,239.372 199.012,239.372 199.333 M255.991 201.625 L 255.417 202.250 256.042 201.676 C 256.385 201.360,256.667 201.078,256.667 201.051 C 256.667 200.923,256.526 201.043,255.991 201.625 M192.240 203.875 L 191.750 204.417 192.292 203.927 C 192.797 203.471,192.910 203.333,192.781 203.333 C 192.752 203.333,192.509 203.577,192.240 203.875 M177.042 209.083 C 177.044 209.450,177.078 209.580,177.118 209.373 C 177.158 209.166,177.156 208.866,177.115 208.706 C 177.073 208.547,177.040 208.717,177.042 209.083 M248.542 210.750 C 248.544 211.117,248.578 211.247,248.618 211.040 C 248.658 210.832,248.656 210.532,248.615 210.373 C 248.573 210.214,248.540 210.383,248.542 210.750 M226.372 212.333 C 226.372 212.654,226.406 212.785,226.448 212.625 C 226.490 212.465,226.490 212.202,226.448 212.042 C 226.406 211.881,226.372 212.012,226.372 212.333 M248.372 217.833 C 248.372 218.154,248.406 218.285,248.448 218.125 C 248.490 217.965,248.490 217.702,248.448 217.542 C 248.406 217.381,248.372 217.512,248.372 217.833 M249.885 218.250 C 249.886 218.800,249.917 219.005,249.954 218.705 C 249.991 218.406,249.990 217.956,249.952 217.705 C 249.914 217.455,249.884 217.700,249.885 218.250 M256.073 218.708 L 255.583 219.250 256.125 218.760 C 256.630 218.304,256.743 218.167,256.615 218.167 C 256.586 218.167,256.342 218.410,256.073 218.708 M237.705 221.667 C 237.705 221.987,237.740 222.119,237.782 221.958 C 237.823 221.798,237.823 221.535,237.782 221.375 C 237.740 221.215,237.705 221.346,237.705 221.667 M243.824 226.125 L 243.250 226.750 243.875 226.176 C 244.457 225.641,244.577 225.500,244.449 225.500 C 244.422 225.500,244.140 225.781,243.824 226.125 M218.389 228.000 C 218.389 228.688,218.419 228.969,218.455 228.625 C 218.491 228.281,218.491 227.719,218.455 227.375 C 218.419 227.031,218.389 227.313,218.389 228.000 M272.598 238.271 C 272.621 238.375,272.553 238.561,272.445 238.686 C 272.338 238.810,272.456 238.731,272.708 238.510 C 273.171 238.105,273.367 237.793,272.933 238.153 C 272.804 238.260,272.667 238.288,272.627 238.215 C 272.587 238.143,272.574 238.168,272.598 238.271 M195.000 240.385 C 195.000 240.414,195.244 240.658,195.542 240.927 L 196.083 241.417 195.594 240.875 C 195.138 240.370,195.000 240.257,195.000 240.385 M182.333 245.250 C 182.644 245.571,182.936 245.833,182.982 245.833 C 183.028 245.833,182.811 245.571,182.500 245.250 C 182.189 244.929,181.897 244.667,181.851 244.667 C 181.805 244.667,182.022 244.929,182.333 245.250 M206.052 251.917 C 206.053 252.467,206.084 252.672,206.121 252.372 C 206.158 252.072,206.157 251.622,206.119 251.372 C 206.081 251.122,206.051 251.367,206.052 251.917 M262.708 251.621 C 263.052 251.657,263.615 251.657,263.958 251.621 C 264.302 251.585,264.021 251.556,263.333 251.556 C 262.646 251.556,262.365 251.585,262.708 251.621 M247.500 252.065 C 247.500 252.101,247.762 252.161,248.083 252.198 C 248.404 252.236,248.667 252.206,248.667 252.133 C 248.667 252.060,248.404 252.000,248.083 252.000 C 247.762 252.000,247.500 252.029,247.500 252.065 M189.375 252.948 C 189.535 252.990,189.798 252.990,189.958 252.948 C 190.119 252.906,189.987 252.872,189.667 252.872 C 189.346 252.872,189.215 252.906,189.375 252.948 M219.377 253.620 C 219.631 253.658,220.006 253.657,220.211 253.617 C 220.416 253.578,220.208 253.546,219.750 253.548 C 219.292 253.549,219.124 253.581,219.377 253.620 M226.708 254.615 C 226.869 254.657,227.131 254.657,227.292 254.615 C 227.452 254.573,227.321 254.539,227.000 254.539 C 226.679 254.539,226.548 254.573,226.708 254.615 M192.042 254.948 C 192.202 254.990,192.465 254.990,192.625 254.948 C 192.785 254.906,192.654 254.872,192.333 254.872 C 192.012 254.872,191.881 254.906,192.042 254.948 M205.399 267.167 C 205.399 268.404,205.425 268.910,205.457 268.292 C 205.489 267.673,205.489 266.660,205.457 266.042 C 205.425 265.423,205.399 265.929,205.399 267.167 M247.385 269.750 C 247.386 270.300,247.417 270.505,247.454 270.205 C 247.491 269.906,247.490 269.456,247.452 269.205 C 247.414 268.955,247.384 269.200,247.385 269.750 M237.233 270.708 C 237.167 270.823,237.176 270.860,237.253 270.790 C 237.329 270.721,237.585 270.833,237.821 271.040 L 238.250 271.417 237.846 270.958 C 237.380 270.430,237.391 270.434,237.233 270.708 M162.709 271.917 C 162.711 272.283,162.745 272.414,162.785 272.206 C 162.824 271.999,162.823 271.699,162.781 271.540 C 162.739 271.380,162.707 271.550,162.709 271.917 M243.375 274.782 C 243.535 274.823,243.798 274.823,243.958 274.782 C 244.119 274.740,243.987 274.705,243.667 274.705 C 243.346 274.705,243.215 274.740,243.375 274.782 M229.575 277.042 L 228.917 277.750 229.625 277.091 C 230.284 276.478,230.410 276.333,230.284 276.333 C 230.257 276.333,229.938 276.652,229.575 277.042 M245.717 282.667 C 245.717 283.171,245.748 283.377,245.786 283.125 C 245.824 282.873,245.824 282.460,245.786 282.208 C 245.748 281.956,245.717 282.162,245.717 282.667 M245.042 286.417 C 245.044 286.783,245.078 286.914,245.118 286.706 C 245.158 286.499,245.156 286.199,245.115 286.040 C 245.073 285.880,245.040 286.050,245.042 286.417 M225.209 290.750 C 225.211 291.117,225.245 291.247,225.285 291.040 C 225.324 290.832,225.323 290.532,225.281 290.373 C 225.239 290.214,225.207 290.383,225.209 290.750 M208.042 291.286 C 208.294 291.324,208.706 291.324,208.958 291.286 C 209.210 291.248,209.004 291.217,208.500 291.217 C 207.996 291.217,207.790 291.248,208.042 291.286 M245.042 294.083 C 245.044 294.450,245.078 294.580,245.118 294.373 C 245.158 294.166,245.156 293.866,245.115 293.706 C 245.073 293.547,245.040 293.717,245.042 294.083 M273.545 302.333 C 273.545 302.746,273.578 302.915,273.618 302.708 C 273.657 302.502,273.657 302.165,273.618 301.958 C 273.578 301.752,273.545 301.921,273.545 302.333 M203.058 308.333 C 203.058 309.112,203.087 309.431,203.122 309.042 C 203.157 308.652,203.157 308.015,203.122 307.625 C 203.087 307.235,203.058 307.554,203.058 308.333 M229.059 318.917 C 229.059 319.742,229.087 320.100,229.122 319.713 C 229.157 319.327,229.157 318.652,229.123 318.213 C 229.088 317.775,229.060 318.092,229.059 318.917 M165.127 321.451 C 165.334 321.491,165.634 321.490,165.794 321.448 C 165.953 321.406,165.783 321.374,165.417 321.375 C 165.050 321.377,164.920 321.411,165.127 321.451 M173.794 321.451 C 174.001 321.491,174.301 321.490,174.460 321.448 C 174.620 321.406,174.450 321.374,174.083 321.375 C 173.717 321.377,173.586 321.411,173.794 321.451 M238.795 322.787 C 239.094 322.825,239.544 322.824,239.795 322.786 C 240.045 322.748,239.800 322.717,239.250 322.718 C 238.700 322.719,238.495 322.750,238.795 322.787 M245.125 322.784 C 245.331 322.824,245.669 322.824,245.875 322.784 C 246.081 322.745,245.912 322.712,245.500 322.712 C 245.088 322.712,244.919 322.745,245.125 322.784 M249.127 322.951 C 249.334 322.991,249.634 322.990,249.794 322.948 C 249.953 322.906,249.783 322.874,249.417 322.875 C 249.050 322.877,248.920 322.911,249.127 322.951 M164.292 328.123 C 164.865 328.156,165.802 328.156,166.375 328.123 C 166.948 328.091,166.479 328.064,165.333 328.064 C 164.188 328.064,163.719 328.091,164.292 328.123 M158.292 328.284 C 158.498 328.324,158.835 328.324,159.042 328.284 C 159.248 328.245,159.079 328.212,158.667 328.212 C 158.254 328.212,158.085 328.245,158.292 328.284 M154.708 328.448 C 154.869 328.490,155.131 328.490,155.292 328.448 C 155.452 328.406,155.321 328.372,155.000 328.372 C 154.679 328.372,154.548 328.406,154.708 328.448 M249.708 328.615 C 249.869 328.657,250.131 328.657,250.292 328.615 C 250.452 328.573,250.321 328.539,250.000 328.539 C 249.679 328.539,249.548 328.573,249.708 328.615 M142.211 329.453 C 142.464 329.491,142.839 329.490,143.044 329.451 C 143.249 329.411,143.042 329.380,142.583 329.381 C 142.125 329.382,141.957 329.415,142.211 329.453 M162.201 334.957 C 162.816 334.989,163.866 334.989,164.534 334.957 C 165.203 334.926,164.700 334.899,163.417 334.899 C 162.133 334.899,161.586 334.925,162.201 334.957 M173.125 334.951 C 173.331 334.991,173.669 334.991,173.875 334.951 C 174.081 334.911,173.912 334.879,173.500 334.879 C 173.088 334.879,172.919 334.911,173.125 334.951 M247.377 341.620 C 247.631 341.658,248.006 341.657,248.211 341.617 C 248.416 341.578,248.208 341.546,247.750 341.548 C 247.292 341.549,247.124 341.581,247.377 341.620 M203.042 344.917 C 203.044 345.283,203.078 345.414,203.118 345.206 C 203.158 344.999,203.156 344.699,203.115 344.540 C 203.073 344.380,203.040 344.550,203.042 344.917 " stroke="none" fill="#7c7c26" fill-rule="evenodd"></path></g></svg>